<svg width="65" height="65" viewBox="0 0 65 65" fill="none" xmlns="http://www.w3.org/2000/svg">
<path d="M31.7484 6.22401C27.3564 6.41601 23.6404 7.22801 19.8684 8.82801C18.9884 9.20001 17.2804 10.06 16.4684 10.536C11.8244 13.268 8.19243 17.04 5.97243 21.44C3.11243 27.104 2.71643 33.584 4.87243 39.392C5.86043 42.044 7.31243 44.488 9.26443 46.784C9.80043 47.412 11.3724 48.996 12.0284 49.564C12.8444 50.272 13.8484 51.052 14.7404 51.668C14.9124 51.788 14.9284 51.812 14.9284 51.964C14.9284 52.256 14.8084 52.96 14.6444 53.608C14.1764 55.476 13.2724 57.528 12.0804 59.44C11.8724 59.776 11.3444 60.548 10.3764 61.94L10.0844 62.36H11.3764C13.7724 62.36 15.0964 62.22 16.7244 61.796C18.5764 61.316 20.2844 60.56 21.9244 59.488C23.0844 58.736 23.9124 58.056 24.9004 57.068L25.5684 56.392L26.4804 56.572C28.7804 57.036 30.5724 57.216 32.8684 57.216C35.0844 57.212 36.8964 57.052 38.9684 56.676C44.6924 55.628 50.0164 53.048 54.0684 49.36C57.8284 45.936 60.3964 41.732 61.5284 37.152C61.9964 35.244 62.1844 33.692 62.1844 31.72C62.1844 29.748 61.9964 28.196 61.5284 26.288C60.0724 20.392 56.2404 15.144 50.6764 11.444C46.1604 8.44001 40.8044 6.66801 35.0524 6.28001C34.3964 6.23601 32.2884 6.20001 31.7484 6.22401ZM34.6284 8.64001C40.1084 8.97601 45.0044 10.552 49.2684 13.352C51.5044 14.816 53.5924 16.716 55.1724 18.72C58.7884 23.3 60.3524 28.764 59.6444 34.32C59.2524 37.412 58.0844 40.492 56.2764 43.2C55.3284 44.62 54.4044 45.724 53.1044 47C49.0364 50.988 43.5084 53.64 37.4284 54.516C35.8124 54.748 34.5124 54.84 32.8044 54.84C30.5524 54.84 28.6724 54.672 26.8084 54.296C26.2484 54.184 25.1444 53.92 24.8044 53.82C24.7604 53.804 24.6284 53.928 24.3924 54.208C24.2004 54.436 23.8524 54.796 23.6164 55.012C21.5284 56.952 18.9444 58.436 16.3564 59.176C15.9124 59.304 14.8004 59.56 14.6884 59.56C14.6684 59.56 14.7244 59.428 14.8124 59.272C15.1324 58.696 15.9284 57.048 16.1884 56.42C16.9284 54.64 17.3284 52.924 17.3964 51.26L17.4204 50.656L17.0444 50.424C11.3244 46.836 7.56043 41.736 6.31243 35.88C6.00043 34.4 5.90843 33.464 5.90843 31.7C5.90843 30.168 5.95243 29.628 6.17243 28.32C6.88043 24.124 8.96043 20.144 12.1284 16.904C14.4524 14.528 17.1084 12.676 20.1764 11.284C23.6484 9.71201 27.1284 8.87601 31.2684 8.62801C31.7804 8.59601 34.0564 8.60401 34.6284 8.64001Z" fill="#4196FF"/>
<path d="M19.4885 29.22C19.0525 29.316 18.5925 29.572 18.2485 29.92C17.2405 30.928 17.2365 32.516 18.2445 33.52C19.2605 34.532 20.8405 34.532 21.8525 33.524C22.8605 32.512 22.8605 30.932 21.8485 29.916C21.2285 29.292 20.3565 29.036 19.4885 29.22Z" fill="#A8CFFF"/>
<path d="M32.2884 29.22C31.8524 29.316 31.3924 29.572 31.0484 29.92C30.0404 30.928 30.0364 32.516 31.0444 33.52C32.0604 34.532 33.6404 34.532 34.6524 33.524C35.6604 32.512 35.6604 30.932 34.6484 29.916C34.0284 29.292 33.1564 29.036 32.2884 29.22Z" fill="#A8CFFF"/>
<path d="M45.0885 29.22C44.6525 29.316 44.1925 29.572 43.8485 29.92C42.8405 30.928 42.8365 32.516 43.8445 33.52C44.8605 34.532 46.4405 34.532 47.4525 33.524C48.4605 32.512 48.4605 30.932 47.4485 29.916C46.8285 29.292 45.9565 29.036 45.0885 29.22Z" fill="#A8CFFF"/>
<path d="M31.0311 5.22401C26.6391 5.41601 22.9231 6.22801 19.1511 7.82801C18.2711 8.20001 16.5631 9.06001 15.7511 9.53601C11.1071 12.268 7.47514 16.04 5.25514 20.44C2.39514 26.104 1.99914 32.584 4.15514 38.392C5.14314 41.044 6.59514 43.488 8.54714 45.784C9.08314 46.412 10.6551 47.996 11.3111 48.564C12.1271 49.272 13.1311 50.052 14.0231 50.668C14.1951 50.788 14.2111 50.812 14.2111 50.964C14.2111 51.256 14.0911 51.96 13.9271 52.608C13.4591 54.476 12.5551 56.528 11.3631 58.44C11.1551 58.776 10.6271 59.548 9.65914 60.94L9.36714 61.36H10.6591C13.0551 61.36 14.3791 61.22 16.0071 60.796C17.8591 60.316 19.5671 59.56 21.2071 58.488C22.3671 57.736 23.1951 57.056 24.1831 56.068L24.8511 55.392L25.7631 55.572C28.0631 56.036 29.8551 56.216 32.1511 56.216C34.3671 56.212 36.1791 56.052 38.2511 55.676C43.9751 54.628 49.2991 52.048 53.3512 48.36C57.1111 44.936 59.6791 40.732 60.8111 36.152C61.2792 34.244 61.4672 32.692 61.4672 30.72C61.4672 28.748 61.2792 27.196 60.8111 25.288C59.3552 19.392 55.5232 14.144 49.9591 10.444C45.4431 7.44001 40.0871 5.66801 34.3351 5.28001C33.6791 5.23601 31.5711 5.20001 31.0311 5.22401ZM33.9111 7.64001C39.3911 7.97601 44.2871 9.55201 48.5511 12.352C50.7872 13.816 52.8751 15.716 54.4552 17.72C58.0712 22.3 59.6352 27.764 58.9272 33.32C58.5352 36.412 57.3671 39.492 55.5592 42.2C54.6111 43.62 53.6871 44.724 52.3871 46C48.3191 49.988 42.7911 52.64 36.7111 53.516C35.0951 53.748 33.7951 53.84 32.0871 53.84C29.8351 53.84 27.9551 53.672 26.0911 53.296C25.5311 53.184 24.4271 52.92 24.0871 52.82C24.0431 52.804 23.9111 52.928 23.6751 53.208C23.4831 53.436 23.1351 53.796 22.8991 54.012C20.8111 55.952 18.2271 57.436 15.6391 58.176C15.1951 58.304 14.0831 58.56 13.9711 58.56C13.9511 58.56 14.0071 58.428 14.0951 58.272C14.4151 57.696 15.2111 56.048 15.4711 55.42C16.2111 53.64 16.6111 51.924 16.6791 50.26L16.7031 49.656L16.3271 49.424C10.6071 45.836 6.84314 40.736 5.59514 34.88C5.28314 33.4 5.19114 32.464 5.19114 30.7C5.19114 29.168 5.23514 28.628 5.45514 27.32C6.16314 23.124 8.24314 19.144 11.4111 15.904C13.7351 13.528 16.3911 11.676 19.4591 10.284C22.9311 8.71201 26.4111 7.87601 30.5511 7.62801C31.0631 7.59601 33.3391 7.60401 33.9111 7.64001Z" fill="#A8CFFF"/>
<path d="M18.7712 28.22C18.3352 28.316 17.8752 28.572 17.5312 28.92C16.5232 29.928 16.5192 31.516 17.5272 32.52C18.5432 33.532 20.1232 33.532 21.1352 32.524C22.1432 31.512 22.1432 29.932 21.1312 28.916C20.5112 28.292 19.6392 28.036 18.7712 28.22Z" fill="#4196FF"/>
<path d="M31.5711 28.22C31.1351 28.316 30.6751 28.572 30.3311 28.92C29.3231 29.928 29.3191 31.516 30.3271 32.52C31.3431 33.532 32.9231 33.532 33.9351 32.524C34.9431 31.512 34.9431 29.932 33.9311 28.916C33.3111 28.292 32.4391 28.036 31.5711 28.22Z" fill="#4196FF"/>
<path d="M44.3712 28.22C43.9352 28.316 43.4752 28.572 43.1312 28.92C42.1232 29.928 42.1192 31.516 43.1272 32.52C44.1432 33.532 45.7232 33.532 46.7352 32.524C47.7432 31.512 47.7432 29.932 46.7312 28.916C46.1112 28.292 45.2392 28.036 44.3712 28.22Z" fill="#4196FF"/>
</svg>
