<svg width="66" height="60" viewBox="0 0 66 60" fill="none" xmlns="http://www.w3.org/2000/svg">
<path d="M5.98049 1.05594C3.90813 1.4341 2.31547 3.13343 2.05163 5.24444C1.97967 5.82844 1.98447 16.9292 2.05643 17.269C2.16676 17.786 2.47858 18.1785 2.95829 18.4035C3.31808 18.5711 3.92252 18.5806 4.26311 18.4275C4.65168 18.2456 4.9539 17.9248 5.1266 17.4988C5.18417 17.36 5.19856 16.3595 5.21775 11.3477L5.24173 5.36411L5.34727 5.13913C5.48639 4.83756 5.8078 4.49769 6.10522 4.34451L6.34508 4.21526L13.277 4.2009C21.0483 4.18654 20.5542 4.16739 21.3026 4.54077C21.6 4.68916 21.7871 4.82798 22.0845 5.12477L22.4779 5.5125L23.917 8.38462C24.7086 9.9595 25.4473 11.3908 25.5624 11.5631C26.0326 12.2907 26.6658 12.8508 27.4525 13.2385C28.0042 13.5113 28.4695 13.6454 29.0836 13.7172C29.3666 13.7459 34.5235 13.765 44.0267 13.765C58.0487 13.765 58.5524 13.7698 58.9746 13.856C60.951 14.2629 62.4765 15.9 62.7355 17.8865C62.7739 18.1737 62.7835 23.3196 62.7739 35.5453L62.7595 52.8019L62.654 53.1848C62.5005 53.7497 62.2942 54.214 61.992 54.6736C61.2196 55.8607 59.9772 56.617 58.5141 56.7989C57.948 56.8659 10.0533 56.8659 9.48721 56.7989C7.41004 56.5452 5.803 55.1044 5.33288 53.0891C5.24653 52.7205 5.24173 52.2035 5.24173 39.3987V26.0912L5.37605 25.8232C5.52956 25.5072 5.85097 25.1913 6.16758 25.0477L6.39305 24.9424L32.3936 24.9184L58.3941 24.8945L58.7155 24.7365C59.4351 24.3871 59.7565 23.626 59.5215 22.8553C59.4303 22.5537 59.3775 22.4676 59.1233 22.2139C58.9026 21.9937 58.7587 21.8931 58.562 21.8261C58.303 21.7352 57.7705 21.7352 32.2976 21.7352C4.14798 21.7352 6.04765 21.716 5.2897 21.9889C4.54615 22.2522 3.98008 22.6064 3.438 23.1425C2.7712 23.8079 2.36344 24.5451 2.1092 25.5407C2.03724 25.8232 2.03244 26.9576 2.01325 38.92C2.00366 47.8906 2.01325 52.1844 2.05163 52.6104C2.20034 54.4677 2.89113 56.0665 4.10961 57.3925C5.28011 58.6658 6.72405 59.4891 8.47021 59.8769L8.93554 59.9774L33.7128 59.9965C51.7501 60.0061 58.6148 59.9965 58.9458 59.9583C61.968 59.604 64.5872 57.4691 65.5659 54.5587C65.7625 53.9747 65.8873 53.3476 65.9496 52.6774C66.0168 51.9307 66.0168 18.6381 65.9496 17.8913C65.6522 14.5549 63.3832 11.8024 60.1691 10.869C59.1089 10.5626 60.4569 10.5914 44.0746 10.5626L29.1795 10.5339L28.9109 10.3999C28.3832 10.1414 28.3304 10.06 26.8001 7.006C26.0326 5.47421 25.2842 4.03336 25.1355 3.80838C24.7997 3.30097 24.0945 2.56858 23.6004 2.21436C22.8808 1.69738 22.1517 1.36229 21.2402 1.13731L20.7365 1.01285L13.5408 1.00328C7.57794 0.993707 6.28271 1.00328 5.98049 1.05594Z" fill="#4196FF"/>
<path d="M3.98049 0.0559358C1.90813 0.434098 0.315472 2.13343 0.0516293 4.24444C-0.020328 4.82844 -0.0155308 15.9292 0.0564264 16.269C0.166761 16.786 0.478575 17.1785 0.95829 17.4035C1.31808 17.5711 1.92252 17.5806 2.26311 17.4275C2.65168 17.2456 2.9539 16.9248 3.1266 16.4988C3.18417 16.36 3.19856 15.3595 3.21775 10.3477L3.24173 4.36411L3.34727 4.13913C3.48639 3.83756 3.8078 3.49769 4.10522 3.34451L4.34508 3.21526L11.277 3.2009C19.0483 3.18654 18.5542 3.16739 19.3026 3.54077C19.6 3.68916 19.7871 3.82798 20.0845 4.12477L20.4779 4.5125L21.917 7.38462C22.7086 8.9595 23.4473 10.3908 23.5624 10.5631C24.0326 11.2907 24.6658 11.8508 25.4525 12.2385C26.0042 12.5113 26.4695 12.6454 27.0836 12.7172C27.3666 12.7459 32.5235 12.765 42.0267 12.765C56.0487 12.765 56.5524 12.7698 56.9746 12.856C58.951 13.2629 60.4765 14.9 60.7355 16.8865C60.7739 17.1737 60.7835 22.3196 60.7739 34.5453L60.7595 51.8019L60.654 52.1848C60.5005 52.7497 60.2942 53.214 59.992 53.6736C59.2196 54.8607 57.9772 55.617 56.5141 55.7989C55.948 55.8659 8.05327 55.8659 7.48721 55.7989C5.41004 55.5452 3.803 54.1044 3.33288 52.0891C3.24653 51.7205 3.24173 51.2035 3.24173 38.3987V25.0912L3.37605 24.8232C3.52956 24.5072 3.85097 24.1913 4.16758 24.0477L4.39305 23.9424L30.3936 23.9184L56.3941 23.8945L56.7155 23.7365C57.4351 23.3871 57.7565 22.626 57.5215 21.8553C57.4303 21.5537 57.3775 21.4676 57.1233 21.2139C56.9026 20.9937 56.7587 20.8931 56.562 20.8261C56.303 20.7352 55.7705 20.7352 30.2976 20.7352C2.14798 20.7352 4.04765 20.716 3.2897 20.9889C2.54615 21.2522 1.98008 21.6064 1.438 22.1425C0.771201 22.8079 0.363444 23.5451 0.109195 24.5407C0.0372378 24.8232 0.0324407 25.9576 0.0132521 37.92C0.00365778 46.8906 0.0132521 51.1844 0.0516293 51.6104C0.200341 53.4677 0.89113 55.0665 2.10961 56.3925C3.28011 57.6658 4.72405 58.4891 6.47021 58.8769L6.93554 58.9774L31.7128 58.9965C49.7501 59.0061 56.6148 58.9965 56.9458 58.9583C59.968 58.604 62.5872 56.4691 63.5659 53.5587C63.7625 52.9747 63.8873 52.3476 63.9496 51.6774C64.0168 50.9307 64.0168 17.6381 63.9496 16.8913C63.6522 13.5549 61.3832 10.8024 58.1691 9.869C57.1089 9.56264 58.4569 9.59136 42.0746 9.56264L27.1795 9.53392L26.9109 9.39989C26.3832 9.1414 26.3304 9.06002 24.8001 6.006C24.0326 4.47421 23.2842 3.03336 23.1355 2.80838C22.7997 2.30097 22.0945 1.56858 21.6004 1.21436C20.8808 0.697375 20.1517 0.362295 19.2402 0.137312L18.7365 0.0128541L11.5408 0.00328034C5.57794 -0.00629338 4.28271 0.00328034 3.98049 0.0559358Z" fill="#A8CFFF"/>
</svg>
