<svg width="26" height="26" viewBox="0 0 26 26" fill="none" xmlns="http://www.w3.org/2000/svg">
<path d="M21.6562 10.5637C21.6694 10.5635 21.6826 10.5633 21.6962 10.5632C21.988 10.5604 22.2697 10.5632 22.555 10.6325C22.5692 10.6358 22.5834 10.6391 22.5981 10.6426C23.4114 10.8365 24.0974 11.3736 24.5343 12.0784C24.6343 12.2442 24.7107 12.4187 24.7813 12.5988C24.7855 12.6095 24.7898 12.6203 24.7941 12.6314C24.8994 12.9036 24.961 13.2119 24.9639 13.5037C24.964 13.5169 24.9642 13.5301 24.9644 13.5437C24.9671 13.8358 24.9631 14.1167 24.895 14.4025C24.8922 14.4151 24.8894 14.4276 24.8866 14.4406C24.7064 15.2418 24.1659 15.9253 23.4823 16.3613C23.3063 16.4704 23.1213 16.5534 22.9288 16.6288C22.918 16.633 22.9072 16.6373 22.8962 16.6417C22.624 16.747 22.3157 16.8085 22.0238 16.8114C22.0106 16.8116 21.9974 16.8117 21.9839 16.8119C21.6924 16.8147 21.4098 16.8128 21.125 16.7425C21.1123 16.7394 21.0996 16.7363 21.0865 16.733C21.006 16.7125 20.9273 16.6882 20.8488 16.6613C20.8326 16.6558 20.8326 16.6558 20.8161 16.6502C20.0545 16.3898 19.4141 15.8323 19.045 15.1175C18.9913 15.0058 18.9439 14.8916 18.8988 14.7763C18.8945 14.7655 18.8903 14.7548 18.8859 14.7437C18.7806 14.4715 18.7191 14.1632 18.7161 13.8714C18.716 13.8582 18.7158 13.845 18.7157 13.8314C18.7129 13.5399 18.7148 13.2573 18.785 12.9725C18.7897 12.9535 18.7897 12.9535 18.7945 12.934C18.815 12.8535 18.8393 12.7748 18.8663 12.6963C18.8717 12.6801 18.8717 12.6801 18.8773 12.6636C19.1378 11.902 19.6952 11.2616 20.41 10.8925C20.5217 10.8388 20.6359 10.7915 20.7513 10.7463C20.762 10.742 20.7728 10.7378 20.7838 10.7334C21.056 10.6281 21.3644 10.5666 21.6562 10.5637Z" fill="#9B59B6"/>
<path d="M12.8162 10.5637C12.8293 10.5635 12.8425 10.5633 12.8561 10.5632C13.148 10.5604 13.4297 10.5632 13.715 10.6325C13.7292 10.6358 13.7434 10.6391 13.7581 10.6426C14.5714 10.8365 15.2574 11.3736 15.6943 12.0784C15.7942 12.2442 15.8707 12.4187 15.9412 12.5988C15.9455 12.6095 15.9497 12.6203 15.9541 12.6314C16.0594 12.9036 16.1209 13.2119 16.1239 13.5037C16.124 13.5169 16.1242 13.5301 16.1243 13.5437C16.1271 13.8358 16.1231 14.1167 16.055 14.4025C16.0522 14.4151 16.0494 14.4276 16.0465 14.4406C15.8664 15.2418 15.3259 15.9253 14.6423 16.3613C14.4663 16.4704 14.2813 16.5534 14.0887 16.6288C14.078 16.633 14.0672 16.6373 14.0561 16.6417C13.784 16.747 13.4756 16.8085 13.1838 16.8114C13.1706 16.8116 13.1574 16.8117 13.1438 16.8119C12.8524 16.8147 12.5698 16.8128 12.285 16.7425C12.2723 16.7394 12.2595 16.7363 12.2464 16.733C12.166 16.7125 12.0873 16.6882 12.0087 16.6613C11.9925 16.6558 11.9925 16.6558 11.976 16.6502C11.2145 16.3898 10.5741 15.8323 10.205 15.1175C10.1513 15.0058 10.1039 14.8916 10.0587 14.7763C10.0545 14.7655 10.0502 14.7548 10.0459 14.7437C9.94056 14.4715 9.87903 14.1632 9.87611 13.8714C9.87595 13.8582 9.87579 13.845 9.87563 13.8314C9.87285 13.5399 9.87476 13.2573 9.94498 12.9725C9.94967 12.9535 9.94967 12.9535 9.95446 12.934C9.97501 12.8535 9.9993 12.7748 10.0262 12.6963C10.0317 12.6801 10.0317 12.6801 10.0373 12.6636C10.2977 11.902 10.8552 11.2616 11.57 10.8925C11.6817 10.8388 11.7959 10.7915 11.9112 10.7463C11.922 10.742 11.9327 10.7378 11.9438 10.7334C12.216 10.6281 12.5243 10.5666 12.8162 10.5637Z" fill="#9B59B6"/>
<path d="M3.97619 10.3962C3.98938 10.396 4.00257 10.3959 4.01616 10.3957C4.30805 10.3929 4.58972 10.3957 4.87501 10.4651C4.88923 10.4684 4.90345 10.4717 4.9181 10.4751C5.73143 10.6691 6.41745 11.2061 6.85433 11.9109C6.95428 12.0767 7.03074 12.2512 7.10126 12.4313C7.10551 12.4421 7.10976 12.4528 7.11414 12.4639C7.21944 12.7361 7.28097 13.0444 7.28389 13.3362C7.28405 13.3494 7.2842 13.3626 7.28437 13.3762C7.28715 13.6684 7.28309 13.9492 7.21501 14.2351C7.21223 14.2476 7.20945 14.2602 7.20658 14.2731C7.02644 15.0743 6.48589 15.7578 5.80234 16.1938C5.62635 16.3029 5.44131 16.3859 5.24876 16.4613C5.23801 16.4656 5.22726 16.4698 5.21618 16.4742C4.94399 16.5795 4.63566 16.641 4.34384 16.6439C4.33065 16.6441 4.31745 16.6442 4.30386 16.6444C4.0124 16.6472 3.72982 16.6453 3.44501 16.5751C3.4323 16.5719 3.41958 16.5688 3.40648 16.5656C3.32602 16.545 3.24729 16.5207 3.16876 16.4938C3.15258 16.4883 3.15258 16.4883 3.13607 16.4828C2.3745 16.2223 1.7341 15.6648 1.36501 14.9501C1.31131 14.8384 1.26395 14.7242 1.21876 14.6088C1.21451 14.598 1.21026 14.5873 1.20589 14.5762C1.10059 14.304 1.03906 13.9957 1.03614 13.7039C1.03598 13.6907 1.03583 13.6775 1.03566 13.6639C1.03288 13.3724 1.03479 13.0899 1.10501 12.8051C1.10971 12.786 1.10971 12.786 1.1145 12.7665C1.13504 12.6861 1.15934 12.6073 1.18626 12.5288C1.19173 12.5126 1.19173 12.5126 1.1973 12.4961C1.45777 11.7345 2.01524 11.0941 2.73001 10.7251C2.84171 10.6713 2.9559 10.624 3.07126 10.5788C3.08202 10.5746 3.09277 10.5703 3.10385 10.5659C3.37604 10.4606 3.68437 10.3991 3.97619 10.3962Z" fill="#9B59B6"/>
</svg>
