<svg width="26" height="26" viewBox="0 0 26 26" fill="none" xmlns="http://www.w3.org/2000/svg">
<path d="M10.7748 8.09113e-05C10.8187 0.000195371 10.8625 0.000252568 10.9063 0.000305725C11.3264 0.00104638 11.7415 0.00869033 12.1582 0.0673942C12.185 0.0710288 12.2119 0.074654 12.2387 0.0782707C14.0424 0.324435 15.7272 0.997498 18.0616 2.76556C18.0771 2.77928 18.0771 2.77928 18.093 2.79327C18.2565 2.93862 18.4113 3.09294 18.5662 3.24738C18.5763 3.25744 18.5865 3.2675 18.5969 3.27786C18.7137 3.39422 18.827 3.5123 18.9339 3.6379C18.9551 3.66208 18.9764 3.68622 18.9976 3.71033C20.2335 5.11992 21.0632 6.83321 21.6574 10.8043C21.6574 10.8398 21.6574 10.8398 21.6574 10.8761C21.6559 12.5667 21.2494 14.1976 20.496 15.7086C20.4812 15.7383 20.4812 15.7383 20.4661 15.7686C20.128 16.443 19.7027 17.0631 19.2382 17.6562C19.3548 17.7988 19.4859 17.9266 19.6162 18.0564C19.6426 18.0827 19.669 18.109 19.6953 18.1353C19.7525 18.1925 19.8097 18.2495 19.867 18.3066C19.9602 18.3994 20.0533 18.4923 20.1464 18.5853C20.2815 18.7202 20.4167 18.855 20.5519 18.9899C20.7657 19.2031 20.9794 19.4164 21.193 19.6297C21.2661 19.7028 21.3392 19.7758 21.4124 19.8488C21.4306 19.8671 21.4489 19.8853 21.4677 19.9041C21.6757 20.1117 21.8836 20.3193 22.0915 20.5269C22.101 20.5364 22.1105 20.5459 22.1203 20.5557C22.4284 20.8632 22.7365 21.1706 23.0447 21.478C23.3708 21.8032 23.6968 22.1286 24.0226 22.4541C24.2176 22.649 24.4127 22.8437 24.608 23.0382C24.7418 23.1715 24.8755 23.305 25.0091 23.4386C25.0861 23.5157 25.1632 23.5926 25.2405 23.6694C25.3113 23.7398 25.3819 23.8104 25.4524 23.8811C25.4779 23.9066 25.5034 23.932 25.529 23.9573C25.7986 24.2242 25.9969 24.5056 26 24.8974C26.0005 25.2066 25.8992 25.4642 25.6886 25.6924C25.4414 25.9287 25.1465 26.0048 24.8153 25.9998C24.3656 25.9824 24.0757 25.6415 23.7799 25.3449C23.7535 25.3185 23.727 25.292 23.7006 25.2656C23.6284 25.1934 23.5562 25.1212 23.4841 25.0489C23.4061 24.9709 23.328 24.8929 23.25 24.8148C23.115 24.6798 22.98 24.5448 22.845 24.4097C22.6499 24.2143 22.4547 24.0191 22.2594 23.8238C21.9427 23.507 21.626 23.1902 21.3093 22.8733C21.0017 22.5656 20.6942 22.2578 20.3866 21.9502C20.3771 21.9407 20.3676 21.9312 20.3578 21.9214C20.253 21.8166 20.1483 21.7118 20.0435 21.607C19.2543 20.8176 18.4652 20.0281 17.6762 19.2386C17.6171 19.2736 17.5613 19.3079 17.5085 19.3518C17.3041 19.518 17.0902 19.6671 16.871 19.813C16.857 19.8223 16.8429 19.8317 16.8284 19.8414C15.4608 20.753 13.9114 21.348 11.9553 21.6075C11.9188 21.6117 11.8823 21.616 11.8458 21.6203C11.0957 21.7052 10.3104 21.6822 9.56152 21.5919C9.54742 21.5902 9.53332 21.5885 9.51879 21.5868C7.74102 21.3741 5.97011 20.7118 4.4874 19.6119C4.45314 19.5863 4.41866 19.561 4.38416 19.5357C3.91088 19.1868 3.47565 18.7936 3.05967 18.3789C3.04076 18.3601 3.02185 18.3413 3.00237 18.3219C2.89892 18.2182 2.79951 18.1127 2.70465 18.0011C2.68515 17.9786 2.66563 17.9562 2.64609 17.9338C2.18451 17.4002 1.78029 16.8264 1.4266 16.2158C1.41803 16.2011 1.40947 16.1863 1.40065 16.1711C0.659826 14.8869 0.202051 13.4497 0.0471074 11.9758C0.0453384 11.9594 0.04357 11.9429 0.0417473 11.9259C0.00561586 11.5789 -0.000842521 11.2328 8.20161e-05 10.8842C0.000196484 10.8404 0.000254215 10.7965 0.000307368 10.7527C0.00104814 10.3325 0.00986863 9.91784 0.067394 9.50083C0.0707675 9.47448 0.0741409 9.44813 0.0776166 9.42098C0.159001 8.786 0.298543 8.16307 0.493413 7.55328C0.502969 7.52275 0.502969 7.52275 0.512718 7.49159C0.922332 6.18573 1.60402 4.96999 2.4815 3.92192C2.4899 3.91179 2.49831 3.90166 2.50697 3.89123C2.68773 3.67345 2.87601 3.46353 3.07805 3.26521C3.11333 3.23038 3.11333 3.23038 3.15096 3.18018C3.19817 3.12263 3.25119 3.0779 3.3077 3.02969C3.35901 2.98411 3.40706 2.93614 3.45526 2.88728C3.54002 2.80175 3.62716 2.72165 3.71898 2.64384C3.73765 2.62765 3.75632 2.61146 3.77556 2.59479C3.95372 2.44107 4.13934 2.29805 4.32758 2.15695C4.3405 2.14722 4.35342 2.13749 4.36674 2.12746C5.8934 0.980134 7.74016 0.250956 9.68324 0.0471073C9.70781 0.0444861 9.70781 0.0444861 9.73287 0.041812C10.08 0.00573899 10.4262 -0.000844009 10.7748 8.09113e-05ZM5.97079 3.65819C5.95984 3.66583 5.94889 3.67348 5.9376 3.68136C5.59212 3.92299 5.26772 4.1853 4.95646 4.46967C4.93639 4.48784 4.91632 4.50602 4.89624 4.52419C4.73114 4.674 4.57008 4.82613 4.42489 4.99562C4.3849 5.04179 4.34358 5.08658 4.30222 5.13153C4.19956 5.24548 4.10519 5.36505 4.01186 5.48666C3.99264 5.51167 3.97334 5.53661 3.95395 5.56149C2.94769 6.8531 2.31778 8.4732 2.20047 10.1085C2.1976 10.1484 2.19419 10.1882 2.19075 10.2281C2.04211 12.208 2.61368 14.273 4.20586 16.3984C4.21432 16.4086 4.22278 16.4188 4.23149 16.4293C4.38177 16.6098 4.54016 16.7797 4.70676 16.9452C4.74491 16.9831 4.78284 17.0213 4.82076 17.0594C4.96127 17.2001 5.10467 17.33 5.26076 17.4533C5.28312 17.4723 5.30536 17.4914 5.32741 17.5107C5.75047 17.8796 6.23148 18.1764 6.7214 18.4474C6.74321 18.4596 6.74321 18.4596 6.76547 18.4721C8.54129 19.4647 10.7503 19.7131 13.2117 19.1493C14.402 18.8055 15.5301 18.2165 16.459 17.3925C16.4877 17.3675 16.5164 17.3426 16.5452 17.3177C16.5705 17.2953 16.5959 17.2729 16.6213 17.2505C16.6351 17.2385 16.649 17.2265 16.6633 17.2142C16.7835 17.1086 16.8972 16.997 17.0105 16.884C17.0336 16.861 17.0336 16.861 17.0572 16.8376C17.1528 16.7418 17.2432 16.6431 17.3313 16.5404C17.3501 16.5191 17.3689 16.4979 17.3877 16.4767C18.4438 15.2749 19.1251 13.7483 19.3752 12.1736C19.3792 12.1485 19.3832 12.1233 19.3874 12.0974C19.4509 11.6784 19.469 11.2632 19.4677 10.8398C19.4677 10.8016 19.4677 10.8016 19.4676 10.7626C19.4667 10.3855 19.4572 10.0162 19.4005 9.64284C19.3973 9.61984 19.394 9.59683 19.3906 9.57313C19.2726 8.75447 19.0371 7.95901 18.6905 7.20841C18.6758 7.17579 18.6612 7.14317 18.6465 7.11054C18.2282 6.19098 17.6074 5.37076 16.8955 4.65905C16.8646 4.62806 16.8338 4.59691 16.803 4.56575C16.6746 4.43663 16.5406 4.31953 16.3981 4.20594C16.3757 4.18697 16.3535 4.16787 16.3315 4.14856C15.9732 3.83617 15.5714 3.57157 15.1606 3.3336C15.1472 3.32576 15.1337 3.31792 15.1199 3.30985C14.0208 2.67281 12.775 2.29475 11.509 2.19753C11.4834 2.19528 11.4577 2.19303 11.4313 2.19071C9.53384 2.04845 7.53242 2.56217 5.97079 3.65819Z" fill="#9B59B6"/>
</svg>
