<svg width="32" height="32" viewBox="0 0 24 24" xmlns="http://www.w3.org/2000/svg">
	<defs>
		<mask id="icon-mask">
			<!-- Повний прямокутник – весь простір -->
			<rect width="24" height="24" fill="white"/>
			<g transform="translate(12,12) scale(0.7) translate(-12,-12)">
			<!-- Форма іконки робиться чорним – це зона, яка стає прозорою -->
			<path d="M6.48 6.794l.49 1.963a1 1 0 0 1-1.94.486l-1-4a1 1 0 0 1 1.393-1.15l15 7a1 1 0 0 1 0 1.813l-15 7a1 1 0 0 1-1.385-1.18l2-7A1 1 0 0 1 7 11h4a1 1 0 0 1 0 2H7.754l-1.19 4.167L17.635 12 6.48 6.794z" fill="black"/>
			</g>
		</mask>
	</defs>
	<!-- Колесо з потрібним кольором, на якому застосовується маска -->
	<circle cx="12" cy="12" r="12" fill="#9B59B6" mask="url(#icon-mask)" />
</svg>
