<svg width="66" height="65" viewBox="0 0 66 65" fill="none" xmlns="http://www.w3.org/2000/svg">
<path d="M32.5 5.02173C30.6236 5.1849 29.0015 6.00554 27.9937 7.31088C27.2786 8.2371 26.8707 9.17771 26.6931 10.3391C26.5827 11.0254 26.6163 12.2491 26.7603 12.8634C27.269 15.0806 28.6703 16.6882 30.7147 17.4129C31.5114 17.6912 32.0153 17.7728 33.0039 17.7728C33.7381 17.7728 33.9781 17.7536 34.3812 17.6672C35.701 17.3793 36.6944 16.8562 37.5678 15.9828C38.2637 15.2821 38.6956 14.5623 39.0315 13.5401L39.2091 13.0026H51.4083C64.7209 13.0026 63.8474 13.0218 64.2889 12.7386C65.3927 12.0476 65.1672 10.3055 63.9194 9.87358C63.7802 9.82559 61.2175 9.80639 51.4611 9.7872L39.1851 9.7632L39.0651 9.35528C38.6092 7.77159 37.4862 6.42785 35.9937 5.6888C34.9571 5.1753 33.6422 4.92095 32.5 5.02173ZM34.0357 8.32348C35.3362 8.67861 36.1857 9.89277 36.1857 11.3949C36.1857 12.038 36.0897 12.4459 35.8209 13.0026C35.4466 13.7752 34.7219 14.3415 33.8917 14.5143C33.4598 14.6054 32.548 14.6054 32.1161 14.5143C30.6284 14.2023 29.6445 12.6906 29.8317 11.0206C30.0045 9.48965 30.9499 8.46745 32.404 8.2323C32.6919 8.18911 33.7477 8.2467 34.0357 8.32348Z" fill="#4196FF"/>
<path d="M2.20829 9.85436C1.46444 10.0367 0.950936 10.747 1.00373 11.51C1.05652 12.2107 1.47883 12.7338 2.1555 12.9258C2.38585 12.9977 3.43205 13.0025 12.3199 12.9929L22.23 12.9785L22.4555 12.873C22.7579 12.7338 23.0986 12.4075 23.2522 12.1147C23.4297 11.7692 23.4537 11.2125 23.3145 10.8382C23.1706 10.459 22.8922 10.1615 22.5035 9.96954L22.182 9.81117L12.3199 9.80157C4.45425 9.79677 2.40505 9.80637 2.20829 9.85436Z" fill="#4196FF"/>
<path d="M47.9049 25.8832C45.1791 26.3344 43.2595 28.2012 42.7124 30.9319C42.5972 31.5269 42.5972 32.8707 42.7124 33.4658C42.9667 34.7375 43.4946 35.7933 44.3152 36.6619C44.8047 37.185 45.3422 37.5738 46.0333 37.9145C47.0939 38.4328 47.9529 38.6056 49.2487 38.5672C50.6404 38.5192 51.6146 38.2216 52.728 37.4874C53.2175 37.1658 53.9134 36.4796 54.2301 35.9997C54.6332 35.3998 55.0219 34.5216 55.1515 33.9361L55.1851 33.7825H59.4467C63.6986 33.7825 63.713 33.7825 63.9914 33.6769C64.3417 33.5473 64.7256 33.1922 64.8744 32.8563C65.0328 32.5011 65.0376 31.8917 64.8792 31.5509C64.74 31.2486 64.4377 30.9319 64.1258 30.7687L63.8858 30.6391L59.5331 30.6247L55.1803 30.6151L55.1467 30.4568C55.0795 30.1352 54.8684 29.5689 54.6716 29.1658C54.3693 28.5515 54.0525 28.1052 53.5918 27.6349C52.7712 26.8047 51.8018 26.272 50.5684 25.9744C50.1509 25.8784 49.9157 25.8545 49.1767 25.8401C48.5864 25.8257 48.1593 25.8401 47.9049 25.8832ZM49.5126 29.0314C50.2757 29.1274 50.8036 29.3674 51.2595 29.8281C51.773 30.3416 52.0657 30.9702 52.1665 31.7717C52.2625 32.5203 52.0849 33.3842 51.7106 34.0081C51.4898 34.3824 51.0243 34.8335 50.674 35.0207C50.1941 35.275 49.7286 35.3758 49.0087 35.3806C48.2649 35.3806 47.8713 35.299 47.3866 35.0446C46.4028 34.5264 45.8173 33.4658 45.8173 32.1988C45.8173 31.4885 45.9613 30.9607 46.3165 30.356C46.9211 29.3434 48.0873 28.8587 49.5126 29.0314Z" fill="#4196FF"/>
<path d="M2.14584 30.6583C1.72833 30.7879 1.31081 31.1574 1.12365 31.5653C1.04206 31.7381 1.01807 31.882 1.01807 32.1988C1.01807 32.5491 1.03726 32.6451 1.15244 32.8802C1.32041 33.221 1.68034 33.5521 2.03067 33.6817L2.29462 33.7825H20.2143C38.1148 33.7825 38.134 33.7825 38.3979 33.6865C38.7627 33.5473 39.065 33.2642 39.2522 32.8802C39.3865 32.6067 39.4105 32.5155 39.4105 32.1988C39.4105 31.882 39.3865 31.7909 39.2522 31.5173C39.065 31.1334 38.7627 30.8502 38.3979 30.7111C38.134 30.6151 38.1196 30.6151 20.1999 30.6199C10.3378 30.6199 2.21303 30.6391 2.14584 30.6583Z" fill="#4196FF"/>
<path d="M21.1262 46.6248C19.8257 46.8119 18.9042 47.1335 18.0884 47.695C14.6811 50.0273 14.4939 55.4503 17.7333 58.0273C19.6769 59.5726 22.6331 59.8318 24.9079 58.656C26.2996 57.9362 27.3026 56.7412 27.8209 55.1911C27.9025 54.9559 27.9649 54.7304 27.9649 54.6872C27.9649 54.62 29.5102 54.6104 45.8558 54.6008L63.7418 54.5864L64.0154 54.476C64.3657 54.3369 64.6921 54.0153 64.86 53.6602C65.0328 53.2955 65.0424 52.6908 64.884 52.3453C64.74 52.0285 64.4425 51.7262 64.1162 51.5582L63.8378 51.419L45.9181 51.395L27.9985 51.3711L27.8449 50.8911C27.4322 49.5858 26.6595 48.4964 25.6517 47.7766C24.9559 47.2871 24.0104 46.8887 23.1178 46.716C22.7291 46.6392 21.4286 46.5816 21.1262 46.6248ZM22.7003 49.8881C23.1514 49.9937 23.4058 50.1041 23.7657 50.3633C24.2648 50.7184 24.6343 51.2655 24.8551 51.9709C24.999 52.446 25.0134 53.4538 24.8791 53.9385C24.5719 55.0471 23.7801 55.8486 22.7339 56.1029C22.3452 56.1989 21.2078 56.1893 20.8143 56.0837C19.9984 55.8678 19.3602 55.3495 18.9954 54.6056C18.7027 54.0105 18.6307 53.6842 18.6355 52.9787C18.6355 52.1773 18.7603 51.7358 19.1586 51.1071C19.5569 50.4832 20.1904 50.0417 20.9151 49.8881C21.3518 49.7922 22.2732 49.7922 22.7003 49.8881Z" fill="#4196FF"/>
<path d="M2.21307 51.4382C1.76196 51.5486 1.31565 51.9229 1.12849 52.3452C0.826145 53.0219 1.0805 53.9001 1.68518 54.3032C2.16988 54.62 2.0547 54.6152 6.73378 54.6008L10.9522 54.5864L11.2257 54.476C11.576 54.3368 11.9024 54.0153 12.0703 53.6602C12.2431 53.2954 12.2527 52.6907 12.0943 52.3452C11.9504 52.0285 11.6528 51.7261 11.3265 51.5582L11.0481 51.419L6.70499 51.4094C4.31506 51.4094 2.29466 51.419 2.21307 51.4382Z" fill="#4196FF"/>
<path d="M31.5 4.02173C29.6236 4.1849 28.0015 5.00554 26.9937 6.31088C26.2786 7.2371 25.8707 8.17771 25.6931 9.33909C25.5827 10.0254 25.6163 11.2491 25.7603 11.8634C26.269 14.0806 27.6703 15.6882 29.7147 16.4129C30.5114 16.6912 31.0153 16.7728 32.0039 16.7728C32.7381 16.7728 32.9781 16.7536 33.3812 16.6672C34.701 16.3793 35.6944 15.8562 36.5678 14.9828C37.2637 14.2821 37.6956 13.5623 38.0315 12.5401L38.2091 12.0026H50.4083C63.7209 12.0026 62.8474 12.0218 63.2889 11.7386C64.3927 11.0476 64.1672 9.30549 62.9194 8.87358C62.7802 8.82559 60.2175 8.80639 50.4611 8.7872L38.1851 8.7632L38.0651 8.35528C37.6092 6.77159 36.4862 5.42785 34.9937 4.6888C33.9571 4.1753 32.6422 3.92095 31.5 4.02173ZM33.0357 7.32348C34.3362 7.67861 35.1857 8.89277 35.1857 10.3949C35.1857 11.038 35.0897 11.4459 34.8209 12.0026C34.4466 12.7752 33.7219 13.3415 32.8917 13.5143C32.4598 13.6054 31.548 13.6054 31.1161 13.5143C29.6284 13.2023 28.6445 11.6906 28.8317 10.0206C29.0045 8.48965 29.9499 7.46745 31.404 7.2323C31.6919 7.18911 32.7477 7.2467 33.0357 7.32348Z" fill="#A8CFFF"/>
<path d="M1.20829 8.85436C0.464435 9.03673 -0.0490641 9.74699 0.00372554 10.51C0.0565152 11.2107 0.478832 11.7338 1.1555 11.9258C1.38585 11.9977 2.43205 12.0025 11.3199 11.9929L21.23 11.9785L21.4555 11.873C21.7579 11.7338 22.0986 11.4075 22.2522 11.1147C22.4297 10.7692 22.4537 10.2125 22.3145 9.83817C22.1706 9.45904 21.8922 9.1615 21.5035 8.96954L21.182 8.81117L11.3199 8.80157C3.45425 8.79677 1.40505 8.80637 1.20829 8.85436Z" fill="#A8CFFF"/>
<path d="M46.9049 24.8832C44.1791 25.3344 42.2595 27.2012 41.7124 29.9319C41.5972 30.5269 41.5972 31.8707 41.7124 32.4658C41.9667 33.7375 42.4946 34.7933 43.3152 35.6619C43.8047 36.185 44.3422 36.5738 45.0333 36.9145C46.0939 37.4328 46.9529 37.6056 48.2487 37.5672C49.6404 37.5192 50.6146 37.2216 51.728 36.4874C52.2175 36.1658 52.9134 35.4796 53.2301 34.9997C53.6332 34.3998 54.0219 33.5216 54.1515 32.9361L54.1851 32.7825H58.4467C62.6986 32.7825 62.713 32.7825 62.9914 32.6769C63.3417 32.5473 63.7256 32.1922 63.8744 31.8563C64.0328 31.5011 64.0376 30.8917 63.8792 30.5509C63.74 30.2486 63.4377 29.9319 63.1258 29.7687L62.8858 29.6391L58.5331 29.6247L54.1803 29.6151L54.1467 29.4568C54.0795 29.1352 53.8684 28.5689 53.6716 28.1658C53.3693 27.5515 53.0525 27.1052 52.5918 26.6349C51.7712 25.8047 50.8018 25.272 49.5684 24.9744C49.1509 24.8784 48.9157 24.8545 48.1767 24.8401C47.5864 24.8257 47.1593 24.8401 46.9049 24.8832ZM48.5126 28.0314C49.2757 28.1274 49.8036 28.3674 50.2595 28.8281C50.773 29.3416 51.0657 29.9702 51.1665 30.7717C51.2625 31.5203 51.0849 32.3842 50.7106 33.0081C50.4898 33.3824 50.0243 33.8335 49.674 34.0207C49.1941 34.275 48.7286 34.3758 48.0087 34.3806C47.2649 34.3806 46.8713 34.299 46.3866 34.0446C45.4028 33.5264 44.8173 32.4658 44.8173 31.1988C44.8173 30.4885 44.9613 29.9607 45.3165 29.356C45.9211 28.3434 47.0873 27.8587 48.5126 28.0314Z" fill="#A8CFFF"/>
<path d="M1.14584 29.6583C0.728327 29.7879 0.310809 30.1574 0.123646 30.5653C0.0420617 30.7381 0.0180664 30.882 0.0180664 31.1988C0.0180664 31.5491 0.0372626 31.6451 0.15244 31.8802C0.320407 32.221 0.680336 32.5521 1.03067 32.6817L1.29462 32.7825H19.2143C37.1148 32.7825 37.134 32.7825 37.3979 32.6865C37.7627 32.5473 38.065 32.2642 38.2522 31.8802C38.3865 31.6067 38.4105 31.5155 38.4105 31.1988C38.4105 30.882 38.3865 30.7909 38.2522 30.5173C38.065 30.1334 37.7627 29.8502 37.3979 29.7111C37.134 29.6151 37.1196 29.6151 19.1999 29.6199C9.33784 29.6199 1.21303 29.6391 1.14584 29.6583Z" fill="#A8CFFF"/>
<path d="M20.1262 45.6248C18.8257 45.8119 17.9042 46.1335 17.0884 46.695C13.6811 49.0273 13.4939 54.4503 16.7333 57.0273C18.6769 58.5726 21.6331 58.8318 23.9079 57.656C25.2996 56.9362 26.3026 55.7412 26.8209 54.1911C26.9025 53.9559 26.9649 53.7304 26.9649 53.6872C26.9649 53.62 28.5102 53.6104 44.8558 53.6008L62.7418 53.5864L63.0154 53.476C63.3657 53.3369 63.6921 53.0153 63.86 52.6602C64.0328 52.2955 64.0424 51.6908 63.884 51.3453C63.74 51.0285 63.4425 50.7262 63.1162 50.5582L62.8378 50.419L44.9181 50.395L26.9985 50.3711L26.8449 49.8911C26.4322 48.5858 25.6595 47.4964 24.6517 46.7766C23.9559 46.2871 23.0104 45.8887 22.1178 45.716C21.7291 45.6392 20.4286 45.5816 20.1262 45.6248ZM21.7003 48.8881C22.1514 48.9937 22.4058 49.1041 22.7657 49.3633C23.2648 49.7184 23.6343 50.2655 23.8551 50.9709C23.999 51.446 24.0134 52.4538 23.8791 52.9385C23.5719 54.0471 22.7801 54.8486 21.7339 55.1029C21.3452 55.1989 20.2078 55.1893 19.8143 55.0837C18.9984 54.8678 18.3602 54.3495 17.9954 53.6056C17.7027 53.0105 17.6307 52.6842 17.6355 51.9787C17.6355 51.1773 17.7603 50.7358 18.1586 50.1071C18.5569 49.4832 19.1904 49.0417 19.9151 48.8881C20.3518 48.7922 21.2732 48.7922 21.7003 48.8881Z" fill="#A8CFFF"/>
<path d="M1.21307 50.4382C0.761962 50.5486 0.315649 50.9229 0.128486 51.3452C-0.173855 52.0219 0.0804954 52.9001 0.685177 53.3032C1.16988 53.62 1.0547 53.6152 5.73378 53.6008L9.95216 53.5864L10.2257 53.476C10.576 53.3368 10.9024 53.0153 11.0703 52.6602C11.2431 52.2954 11.2527 51.6907 11.0943 51.3452C10.9504 51.0285 10.6528 50.7261 10.3265 50.5582L10.0481 50.419L5.70499 50.4094C3.31506 50.4094 1.29466 50.419 1.21307 50.4382Z" fill="#A8CFFF"/>
</svg>
