<svg width="66" height="65" viewBox="0 0 66 65" fill="none" xmlns="http://www.w3.org/2000/svg">
<path d="M31.9364 1.54618C31.8604 1.55418 31.5284 1.57818 31.1964 1.60218C27.3244 1.88218 23.3764 2.96218 19.7964 4.72618C11.9724 8.57018 6.04441 15.5342 3.51641 23.8422C2.89241 25.9022 2.48841 27.9822 2.27241 30.2622C2.18841 31.1662 2.15241 33.9222 2.21241 34.8742C2.54841 40.0822 3.98441 44.7262 6.65241 49.2182C7.12441 50.0182 7.34441 50.2742 7.68441 50.4342C7.89241 50.5302 7.96441 50.5422 8.33641 50.5422C8.69641 50.5422 8.78441 50.5262 8.94841 50.4462C9.44441 50.2022 9.77241 49.7222 9.80841 49.1862C9.83241 48.8062 9.75641 48.5542 9.49241 48.1222C6.93641 43.9782 5.53241 39.5982 5.21241 34.7942C5.15241 33.8622 5.18841 31.2022 5.27241 30.3822C5.66841 26.5782 6.58441 23.4062 8.21641 20.1822C8.47241 19.6742 8.84041 18.9902 9.03241 18.6622C13.1964 11.5782 20.1684 6.61018 28.1364 5.04618C29.2124 4.83818 29.9884 4.72618 31.2964 4.59418C31.9844 4.52218 35.2884 4.52218 36.0164 4.59418C39.9604 4.97419 43.1764 5.89018 46.5164 7.58218C55.0764 11.9142 60.9324 20.3422 61.9724 29.8222C62.1204 31.1342 62.1484 31.8142 62.1244 33.4342C62.1004 35.2542 62.0204 36.1902 61.7524 37.7822C61.1404 41.4382 59.7484 45.0742 57.7604 48.2222C57.4804 48.6702 57.4004 48.9182 57.4244 49.2982C57.4604 49.8742 57.8404 50.4022 58.3644 50.6062C58.8364 50.7862 59.3964 50.7102 59.8044 50.4062C60.1284 50.1662 60.8604 48.9822 61.6844 47.3782C63.6964 43.4502 64.8284 39.3102 65.1004 34.8582C65.1604 33.8502 65.1284 31.1742 65.0404 30.2782C64.5204 24.8262 62.8244 19.9942 59.8844 15.5822C54.8324 8.00618 46.8084 2.98219 37.8564 1.78618C36.3604 1.58619 35.8644 1.55418 33.9164 1.54218C32.9044 1.53418 32.0124 1.53819 31.9364 1.54618Z" fill="#4196FF"/>
<path d="M32.4365 16.5622C29.7165 16.8982 27.4125 18.0062 25.5365 19.8822C23.8845 21.5302 22.8005 23.5742 22.3565 25.8622C22.1045 27.1582 22.1125 28.9262 22.3725 30.2222C22.9365 33.0182 24.4925 35.4902 26.7645 37.1982C28.4405 38.4582 30.4045 39.2222 32.5325 39.4462C33.2005 39.5142 34.7805 39.4702 35.4365 39.3662C37.8805 38.9702 40.0365 37.8662 41.7765 36.1222C43.6685 34.2302 44.7925 31.8782 45.0965 29.1822C45.1485 28.7182 45.1485 27.2862 45.0965 26.8222C44.9125 25.1942 44.4245 23.6702 43.6565 22.3342C43.1005 21.3782 42.5485 20.6502 41.7765 19.8822C40.0365 18.1382 37.8845 17.0382 35.4325 16.6382C35.0165 16.5702 34.7045 16.5502 33.8165 16.5422C33.2125 16.5342 32.5925 16.5422 32.4365 16.5622ZM34.6565 19.5622C36.5685 19.8022 38.2965 20.6462 39.6565 22.0022C41.0125 23.3582 41.8605 25.0942 42.0965 27.0022C42.1485 27.4382 42.1485 28.5662 42.0965 29.0022C41.8605 30.9102 41.0125 32.6462 39.6565 34.0022C38.3005 35.3582 36.5645 36.2062 34.6565 36.4422C34.2205 36.4942 33.0925 36.4942 32.6565 36.4382C30.0525 36.1182 27.7565 34.6382 26.3925 32.3982C25.7805 31.3942 25.3645 30.1982 25.2165 29.0022C25.1645 28.5662 25.1645 27.4382 25.2165 27.0022C25.4525 25.0942 26.3005 23.3582 27.6565 22.0022C28.9925 20.6662 30.7405 19.8062 32.6165 19.5662C33.0005 19.5182 34.2645 19.5142 34.6565 19.5622Z" fill="#4196FF"/>
<path d="M32.6364 45.3262C25.2164 45.5582 18.0684 48.6182 12.8004 53.8182C12.4124 54.2022 12.2844 54.3582 12.1804 54.5702C11.9404 55.0502 11.9724 55.5942 12.2644 56.0502C12.4644 56.3702 13.8804 57.5662 15.1364 58.4822C19.3724 61.5742 24.3644 63.5582 29.6164 64.2382C31.1164 64.4342 31.5844 64.4622 33.6364 64.4622C35.6924 64.4622 36.2604 64.4302 37.7164 64.2382C41.3724 63.7582 44.7524 62.7062 47.9964 61.0462C49.9204 60.0622 51.6244 58.9582 53.2964 57.6222C54.2644 56.8462 54.9124 56.2662 55.0484 56.0502C55.3404 55.5942 55.3724 55.0502 55.1324 54.5702C55.0284 54.3582 54.9004 54.2022 54.5124 53.8182C51.8684 51.1982 48.6124 49.0382 45.1084 47.5782C41.9204 46.2542 38.2004 45.4342 34.9564 45.3422C34.5604 45.3302 34.0844 45.3142 33.8964 45.3102C33.7084 45.3022 33.1444 45.3102 32.6364 45.3262ZM34.8964 48.3422C37.6924 48.4262 40.8364 49.1062 43.6564 50.2302C46.4124 51.3302 49.1284 52.9982 51.2884 54.9142L51.5764 55.1702L51.2484 55.4302C47.2804 58.5462 42.4484 60.5822 37.4644 61.2462C36.2284 61.4102 35.6404 61.4502 34.0764 61.4702C32.4044 61.4942 31.4364 61.4462 30.1164 61.2782C25.9964 60.7622 22.1004 59.3782 18.5484 57.1702C17.8604 56.7382 16.9124 56.0822 16.2644 55.5782L15.7364 55.1702L16.1444 54.8142C20.7524 50.8262 26.5964 48.5302 32.6764 48.3262C33.1604 48.3102 33.7084 48.3022 33.8964 48.3102C34.0844 48.3142 34.5324 48.3302 34.8964 48.3422Z" fill="#4196FF"/>
<path d="M29.9364 0.546185C29.8604 0.554184 29.5284 0.578182 29.1964 0.602184C25.3244 0.882183 21.3764 1.96218 17.7964 3.72618C9.97241 7.57018 4.04441 14.5342 1.51641 22.8422C0.892412 24.9022 0.488412 26.9822 0.272412 29.2622C0.188412 30.1662 0.152412 32.9222 0.212412 33.8742C0.548412 39.0822 1.98441 43.7262 4.65241 48.2182C5.12441 49.0182 5.34441 49.2742 5.68441 49.4342C5.89241 49.5302 5.96441 49.5422 6.33641 49.5422C6.69641 49.5422 6.78441 49.5262 6.94841 49.4462C7.44441 49.2022 7.77241 48.7222 7.80841 48.1862C7.83241 47.8062 7.75641 47.5542 7.49241 47.1222C4.93641 42.9782 3.53241 38.5982 3.21241 33.7942C3.15241 32.8622 3.18841 30.2022 3.27241 29.3822C3.66841 25.5782 4.58441 22.4062 6.21641 19.1822C6.47241 18.6742 6.84041 17.9902 7.03241 17.6622C11.1964 10.5782 18.1684 5.61018 26.1364 4.04618C27.2124 3.83818 27.9884 3.72618 29.2964 3.59418C29.9844 3.52218 33.2884 3.52218 34.0164 3.59418C37.9604 3.97419 41.1764 4.89018 44.5164 6.58218C53.0764 10.9142 58.9324 19.3422 59.9724 28.8222C60.1204 30.1342 60.1484 30.8142 60.1244 32.4342C60.1004 34.2542 60.0204 35.1902 59.7524 36.7822C59.1404 40.4382 57.7484 44.0742 55.7604 47.2222C55.4804 47.6702 55.4004 47.9182 55.4244 48.2982C55.4604 48.8742 55.8404 49.4022 56.3644 49.6062C56.8364 49.7862 57.3964 49.7102 57.8044 49.4062C58.1284 49.1662 58.8604 47.9822 59.6844 46.3782C61.6964 42.4502 62.8284 38.3102 63.1004 33.8582C63.1604 32.8502 63.1284 30.1742 63.0404 29.2782C62.5204 23.8262 60.8244 18.9942 57.8844 14.5822C52.8324 7.00618 44.8084 1.98219 35.8564 0.786182C34.3604 0.586185 33.8644 0.554184 31.9164 0.542183C30.9044 0.534184 30.0124 0.538185 29.9364 0.546185Z" fill="#A8CFFF"/>
<path d="M30.4365 15.5622C27.7165 15.8982 25.4125 17.0062 23.5365 18.8822C21.8845 20.5302 20.8005 22.5742 20.3565 24.8622C20.1045 26.1582 20.1125 27.9262 20.3725 29.2222C20.9365 32.0182 22.4925 34.4902 24.7645 36.1982C26.4405 37.4582 28.4045 38.2222 30.5325 38.4462C31.2005 38.5142 32.7805 38.4702 33.4365 38.3662C35.8805 37.9702 38.0365 36.8662 39.7765 35.1222C41.6685 33.2302 42.7925 30.8782 43.0965 28.1822C43.1485 27.7182 43.1485 26.2862 43.0965 25.8222C42.9125 24.1942 42.4245 22.6702 41.6565 21.3342C41.1005 20.3782 40.5485 19.6502 39.7765 18.8822C38.0365 17.1382 35.8845 16.0382 33.4325 15.6382C33.0165 15.5702 32.7045 15.5502 31.8165 15.5422C31.2125 15.5342 30.5925 15.5422 30.4365 15.5622ZM32.6565 18.5622C34.5685 18.8022 36.2965 19.6462 37.6565 21.0022C39.0125 22.3582 39.8605 24.0942 40.0965 26.0022C40.1485 26.4382 40.1485 27.5662 40.0965 28.0022C39.8605 29.9102 39.0125 31.6462 37.6565 33.0022C36.3005 34.3582 34.5645 35.2062 32.6565 35.4422C32.2205 35.4942 31.0925 35.4942 30.6565 35.4382C28.0525 35.1182 25.7565 33.6382 24.3925 31.3982C23.7805 30.3942 23.3645 29.1982 23.2165 28.0022C23.1645 27.5662 23.1645 26.4382 23.2165 26.0022C23.4525 24.0942 24.3005 22.3582 25.6565 21.0022C26.9925 19.6662 28.7405 18.8062 30.6165 18.5662C31.0005 18.5182 32.2645 18.5142 32.6565 18.5622Z" fill="#A8CFFF"/>
<path d="M30.6364 44.3262C23.2164 44.5582 16.0684 47.6182 10.8004 52.8182C10.4124 53.2022 10.2844 53.3582 10.1804 53.5702C9.94038 54.0502 9.97238 54.5942 10.2644 55.0502C10.4644 55.3702 11.8804 56.5662 13.1364 57.4822C17.3724 60.5742 22.3644 62.5582 27.6164 63.2382C29.1164 63.4342 29.5844 63.4622 31.6364 63.4622C33.6924 63.4622 34.2604 63.4302 35.7164 63.2382C39.3724 62.7582 42.7524 61.7062 45.9964 60.0462C47.9204 59.0622 49.6244 57.9582 51.2964 56.6222C52.2644 55.8462 52.9124 55.2662 53.0484 55.0502C53.3404 54.5942 53.3724 54.0502 53.1324 53.5702C53.0284 53.3582 52.9004 53.2022 52.5124 52.8182C49.8684 50.1982 46.6124 48.0382 43.1084 46.5782C39.9204 45.2542 36.2004 44.4342 32.9564 44.3422C32.5604 44.3302 32.0844 44.3142 31.8964 44.3102C31.7084 44.3022 31.1444 44.3102 30.6364 44.3262ZM32.8964 47.3422C35.6924 47.4262 38.8364 48.1062 41.6564 49.2302C44.4124 50.3302 47.1284 51.9982 49.2884 53.9142L49.5764 54.1702L49.2484 54.4302C45.2804 57.5462 40.4484 59.5822 35.4644 60.2462C34.2284 60.4102 33.6404 60.4502 32.0764 60.4702C30.4044 60.4942 29.4364 60.4462 28.1164 60.2782C23.9964 59.7622 20.1004 58.3782 16.5484 56.1702C15.8604 55.7382 14.9124 55.0822 14.2644 54.5782L13.7364 54.1702L14.1444 53.8142C18.7524 49.8262 24.5964 47.5302 30.6764 47.3262C31.1604 47.3102 31.7084 47.3022 31.8964 47.3102C32.0844 47.3142 32.5324 47.3302 32.8964 47.3422Z" fill="#A8CFFF"/>
</svg>
